# xmcd CD database file
#
# Track frame offsets:
#	150
#	6659
#	17752
#	31380
#	41022
#	52801
#	65088
#	78084
#	80614
#	91923
#	103914
#	117696
#	132605
#
# Disc length: 2073 seconds
#
# Revision: 0
# Processed by: cddbd v1.5.1PL2 Copyright (c) Steve Scherf et al.
# Submitted via: CDex 1.51
#
DISCID=b108170d
DTITLE=Super Black Market - Will Sell Anything
DYEAR=2006
DGENRE=Salsa
TTITLE0=They Will Sell You
TTITLE1=Since We've Been Here
TTITLE2=Something to Kill For
TTITLE3=Whipping Boy
TTITLE4=There's Going to Be a Party...
TTITLE5=Belt of Scotch
TTITLE6=The Right Chords
TTITLE7=I Don't Really Think... Like... Like Bob Marley...
TTITLE8=We Can't Never Sleep
TTITLE9=10,000 Hearts to the Midwest
TTITLE10=Killing Pomoza
TTITLE11=We'll Make Your Ass Dance (To the Death Beat)
TTITLE12=Just One More Breath
EXTD=YEAR: 2006
EXTT0=
EXTT1=
EXTT2=
EXTT3=
EXTT4=
EXTT5=
EXTT6=
EXTT7=
EXTT8=
EXTT9=
EXTT10=
EXTT11=
EXTT12=
PLAYORDER=
